<svg width="1389" height="304" viewBox="0 0 1389 304" fill="none" xmlns="http://www.w3.org/2000/svg">
<path d="M75.9598 72.5841V231.256C75.9598 235.898 76.8038 238.008 78.4918 238.008C80.1798 238.008 81.0238 235.898 81.0238 231.256V156.14H156.984V225.348C156.984 275.566 127.866 303.84 77.2258 303.84C27.4298 303.84 -0.00022654 276.41 -0.00022654 225.348V78.0701C-0.00022654 27.0081 27.4298 0.000101089 77.2258 0.000101089C127.866 0.000101089 156.984 28.2741 156.984 78.0701V147.7H81.0238V72.5841C81.0238 67.5201 80.1798 65.8321 78.4918 65.8321C76.8038 65.8321 75.9598 67.5201 75.9598 72.5841ZM242.983 4.2201H318.943V299.62H242.983V181.038H237.919V299.62H161.959V4.2201H237.919V115.206H242.983V4.2201ZM399.878 4.2201V119.426H404.942V4.2201H485.122L467.398 151.92L485.122 299.62H404.942V184.836H399.878V299.62H323.918V4.2201H399.878ZM639.564 105.5H563.604V72.5841C563.604 67.9421 562.76 65.8321 561.072 65.8321C559.384 65.8321 558.54 67.9421 558.54 72.5841V96.2161C558.54 108.454 559.384 110.564 591.878 128.71L603.272 135.04C631.968 151.076 639.564 170.488 639.564 219.862V225.348C639.564 275.566 610.446 303.84 559.806 303.84C509.588 303.84 482.58 276.41 482.58 225.348V198.34H558.54V231.256C558.54 235.898 559.384 238.008 561.072 238.008C562.76 238.008 563.604 235.898 563.604 231.678V206.78C563.604 194.542 562.76 192.854 533.642 176.396L520.138 168.8C490.598 152.342 482.58 131.242 482.58 81.8681V78.0701C482.58 27.0081 510.01 0.000101089 559.806 0.000101089C610.446 0.000101089 639.564 28.2741 639.564 78.0701V105.5ZM795.615 4.2201V70.0521H757.635V299.62H681.675V70.0521H643.695V4.2201H795.615ZM909.624 70.0521H875.864V110.986H909.624V176.818H875.864V233.788H909.624V299.62H799.904V4.2201H909.624V70.0521ZM914.883 4.2201H992.531C1043.17 4.2201 1071.87 37.1361 1071.87 110.986V111.83C1071.87 188.212 1046.12 212.688 991.687 212.688H990.843V299.62H914.883V4.2201ZM990.843 70.0521V146.856H991.687C995.907 146.856 995.907 146.012 995.907 140.104V76.8041C995.907 70.8961 995.907 70.0521 991.687 70.0521H990.843ZM1083.88 4.2201H1202.04L1220.61 299.62H1144.65V238.852H1139.58V299.62H1063.62L1083.88 4.2201ZM1139.58 173.02H1144.65V136.728H1139.58V173.02ZM1312.15 4.2201H1388.11V299.62H1306.67L1287.25 139.26H1283.03L1300.34 299.62H1224.38V4.2201H1305.82L1326.92 166.268H1331.14L1312.15 4.2201Z" fill="#FDFDFD"/>
</svg>
