<svg width="888" height="888" viewBox="0 0 888 888" fill="none" xmlns="http://www.w3.org/2000/svg">
<path d="M270.794 717.827C222.111 683.474 178.58 630.759 155.66 578.241C133.45 527.895 124.033 472.613 128.475 418.516C141.801 256.422 269.017 128.287 434.257 110.32C452.38 108.346 500.175 109.333 519.009 111.9C591.323 122.561 663.105 159.482 715.342 212.986C743.496 241.768 762.472 268.446 778.471 302.4L806.586 251.895C801.496 243.111 795.969 234.32 789.966 225.425C777.706 207.063 748.567 173.499 731.688 158.099C679.984 111.11 612.289 76.7563 545.483 63.5283C514.211 57.4078 467.838 54.4462 443.141 56.8154C373.669 64.1205 328.539 77.7435 276.658 107.161C177.869 163.233 108.753 259.778 86.721 371.921C82.9898 391.073 81.746 403.511 81.213 429.967C79.4362 495.713 88.6754 545.467 112.662 599.564C149.441 682.289 207.897 744.678 289.45 788.312C368.694 830.76 457.888 843.198 548.858 824.64C609.802 812.004 670.389 782.586 719.961 741.322C737.551 726.514 769.178 692.556 783.036 673.602C791.896 661.411 799.993 648.808 807.315 635.862L778.689 586.005C770.794 602.722 761.565 618.58 751.41 633.128C737.196 653.266 705.569 687.62 688.335 701.638C604.649 769.753 496.799 795.419 392.68 772.122C354.125 763.435 303.487 740.927 270.794 717.827Z" fill="#212121"/>
<path d="M434.256 139.936C416.666 142.7 385.217 149.018 380.953 150.795L375.623 152.769L375.978 445.17L376.511 737.571L385.395 739.941C392.857 742.112 406.538 744.679 437.454 749.417L441.363 750.01V615.162V480.116H465.349H489.336V614.372V748.628H498.753C508.347 748.628 536.953 744.087 548.502 740.533L555.076 738.559V444.578V150.598L548.147 148.426C538.73 145.662 506.037 140.528 496.976 140.528H489.336V273.797V407.065H465.349H441.363V273.994C441.363 200.746 440.83 140.528 440.119 140.133C439.231 139.739 436.743 139.739 434.256 139.936Z" fill="#212121"/>
<path d="M578.175 444.38C578.175 601.933 578.708 730.858 579.241 730.858C581.906 730.858 621.35 711.905 632.011 705.587L643.915 698.479V605.487L643.677 512.19L650.489 502.229C650.489 502.229 657.275 493.412 657.922 492.765C658.57 494.06 672.344 522.959 688.334 557.116C704.325 591.272 739.559 657.846 740.802 659.82C742.757 662.979 755.99 648.19 765.407 634.567C779.994 634.567 775.439 620.426 780.947 609.962L782.89 594.422L732.754 494.529L703.792 430.757L730.266 386.137C744.836 361.458 780.643 298.886 782.242 295.925C785.44 290.792 777.833 284.644 767.35 265.492C755.978 244.762 741.284 235.707 739.507 235.707C738.264 235.707 708.234 287.025 679.984 336.976C672.699 350.007 661.683 368.96 655.642 379.227L644.804 397.983L644.271 294.33L643.915 190.874L631.833 183.766C620.462 176.856 590.79 162.246 582.261 159.284L578.175 158.1V444.38Z" fill="#212121"/>
<path d="M329.428 170.933C235.081 217.33 171.473 303.214 157.969 403.116C143.4 509.731 185.865 614.174 271.683 682.487C286.43 694.333 333.337 721.776 346.84 726.712L352.526 728.687V637.866V547.244H319.655H286.785V573.898C286.785 589.1 286.785 598.954 286.785 600.249C284.475 600.249 259.245 571.528 252.671 560.669C229.04 521.775 216.425 467.678 220.867 423.65C224.421 389.888 235.437 356.719 253.027 328.091C260.844 315.258 284.12 288.154 286.785 288.154C286.785 289.449 286.785 315.258 286.785 315.258V341.912H319.655H352.526V252.079C352.526 167.774 352.526 163.187 352.526 161.244C350.749 161.244 338.667 166.392 329.428 170.933Z" fill="#212121"/>
</svg>
